<?xml version="1.0" standalone="no"?>
<!DOCTYPE svg PUBLIC "-//W3C//DTD SVG 20010904//EN"
 "http://www.w3.org/TR/2001/REC-SVG-20010904/DTD/svg10.dtd">
<svg version="1.0" xmlns="http://www.w3.org/2000/svg"
 width="512.000000pt" height="512.000000pt" viewBox="0 0 512.000000 512.000000"
 preserveAspectRatio="xMidYMid meet">

<g transform="translate(0.000000,512.000000) scale(0.100000,-0.100000)"
fill="#000000" stroke="none">
<path d="M2604 4928 c-3 -628 -177 -1050 -569 -1386 -104 -89 -265 -200 -598
-413 -272 -173 -440 -311 -572 -470 -280 -336 -424 -760 -461 -1355 l-6 -112
43 -63 c77 -114 171 -230 280 -343 l107 -111 7 70 c67 681 265 1157 645 1549
128 132 252 242 520 457 263 213 396 333 496 450 295 344 444 709 510 1254 20
162 31 625 15 625 -6 0 -55 6 -109 14 -53 8 -144 17 -202 21 l-105 6 -1 -193z"/>
<path d="M2270 5103 c-130 -12 -389 -70 -525 -116 l-70 -24 -12 -174 c-17
-264 -56 -425 -143 -599 -108 -214 -271 -369 -630 -595 -234 -147 -346 -230
-445 -329 -242 -242 -360 -544 -395 -1009 -10 -142 -10 -150 15 -263 25 -109
85 -306 118 -383 l15 -34 11 74 c65 407 173 712 341 969 85 129 159 217 281
335 150 145 284 243 619 456 403 254 557 386 696 595 158 237 234 556 234 980
l0 124 -37 -2 c-21 0 -54 -3 -73 -5z"/>
<path d="M3260 4889 c0 -520 -97 -1001 -274 -1364 -164 -335 -379 -580 -826
-940 -406 -327 -561 -475 -701 -672 -241 -339 -369 -756 -404 -1314 l-7 -106
119 -77 c104 -69 381 -214 439 -230 21 -6 22 -3 29 96 36 561 169 1013 402
1368 153 233 340 421 749 756 466 380 661 601 808 915 157 336 235 741 239
1235 l2 227 -135 67 c-118 60 -333 145 -413 165 l-27 7 0 -133z"/>
<path d="M1350 4814 c-121 -65 -289 -177 -405 -271 -115 -93 -292 -271 -385
-388 -159 -200 -313 -474 -398 -706 -38 -102 -82 -246 -82 -266 0 -4 20 22 45
59 111 166 305 334 605 523 371 234 483 335 584 527 51 97 80 183 100 306 14
84 30 262 24 262 -2 0 -41 -21 -88 -46z"/>
<path d="M4066 4543 c-3 -42 -6 -104 -6 -138 0 -92 -27 -354 -50 -489 -75
-442 -229 -807 -467 -1110 -100 -127 -342 -357 -573 -545 -391 -319 -538 -458
-672 -638 -275 -370 -404 -793 -442 -1445 l-4 -78 36 -9 c172 -45 293 -66 462
-81 186 -16 166 -27 174 96 34 522 183 974 432 1311 135 182 295 336 649 624
476 387 662 629 799 1039 85 254 124 511 133 872 l6 237 -159 159 c-132 132
-290 272 -307 272 -2 0 -7 -34 -11 -77z"/>
<path d="M4760 3783 c0 -79 -26 -305 -51 -433 -49 -261 -113 -451 -220 -659
-158 -305 -330 -496 -779 -861 -311 -253 -424 -361 -553 -528 -231 -299 -370
-711 -403 -1191 l-7 -104 79 8 c95 8 250 36 365 65 119 30 273 81 281 94 4 6
8 46 8 89 0 174 46 446 101 603 39 113 108 251 167 334 64 91 221 245 322 316
47 33 153 102 235 153 205 128 307 203 390 286 114 113 196 248 248 410 63
196 77 292 85 595 7 255 7 255 -19 345 -51 175 -205 522 -237 533 -8 2 -12
-14 -12 -55z"/>
<path d="M5041 2027 c-41 -72 -135 -189 -207 -258 -88 -84 -181 -152 -369
-269 -245 -152 -335 -218 -430 -315 -135 -137 -217 -289 -271 -503 -24 -94
-54 -302 -54 -374 l0 -37 83 46 c337 186 650 469 869 784 134 192 242 405 317
621 42 122 95 322 89 338 -2 5 -14 -10 -27 -33z"/>
</g>
</svg>
